<mxfile host="app.diagrams.net" agent="Mozilla/5.0 (X11; Ubuntu; Linux x86_64; rv:136.0) Gecko/20100101 Firefox/136.0" version="26.1.3">
  <diagram name="Page-1" id="Wt5sBFWHKxQ-G9U5ZtMf">
    <mxGraphModel dx="939" dy="548" grid="1" gridSize="10" guides="1" tooltips="1" connect="1" arrows="1" fold="1" page="1" pageScale="1" pageWidth="850" pageHeight="1100" math="0" shadow="0">
      <root>
        <mxCell id="0" />
        <mxCell id="1" parent="0" />
        <mxCell id="HaBFPjXSsnw16N7_fHS7-11" value="" style="endArrow=none;html=1;rounded=0;" edge="1" parent="1">
          <mxGeometry width="50" height="50" relative="1" as="geometry">
            <mxPoint x="510" y="249.8" as="sourcePoint" />
            <mxPoint x="550" y="249.8" as="targetPoint" />
          </mxGeometry>
        </mxCell>
        <mxCell id="HaBFPjXSsnw16N7_fHS7-20" style="edgeStyle=none;rounded=0;orthogonalLoop=1;jettySize=auto;html=1;exitX=0.5;exitY=0;exitDx=0;exitDy=0;entryX=1;entryY=0.5;entryDx=0;entryDy=0;shape=link;" edge="1" parent="1" source="HaBFPjXSsnw16N7_fHS7-1" target="HaBFPjXSsnw16N7_fHS7-19">
          <mxGeometry relative="1" as="geometry" />
        </mxCell>
        <mxCell id="HaBFPjXSsnw16N7_fHS7-1" value="MUX" style="shape=trapezoid;perimeter=trapezoidPerimeter;html=1;fixedSize=1;rotation=-90;horizontal=1;whiteSpace=wrap;labelPosition=center;verticalLabelPosition=middle;align=center;verticalAlign=middle;fontStyle=0" vertex="1" parent="1">
          <mxGeometry x="300" y="320" width="120" height="60" as="geometry" />
        </mxCell>
        <mxCell id="HaBFPjXSsnw16N7_fHS7-18" style="rounded=0;orthogonalLoop=1;jettySize=auto;html=1;entryX=0.5;entryY=0;entryDx=0;entryDy=0;shape=link;" edge="1" parent="1" source="HaBFPjXSsnw16N7_fHS7-2" target="HaBFPjXSsnw16N7_fHS7-15">
          <mxGeometry relative="1" as="geometry" />
        </mxCell>
        <mxCell id="HaBFPjXSsnw16N7_fHS7-2" value="CVA6" style="rounded=0;whiteSpace=wrap;html=1;" vertex="1" parent="1">
          <mxGeometry x="540" y="210" width="120" height="60" as="geometry" />
        </mxCell>
        <mxCell id="HaBFPjXSsnw16N7_fHS7-4" value="DWC" style="rounded=0;whiteSpace=wrap;html=1;" vertex="1" parent="1">
          <mxGeometry x="410" y="230" width="100" height="40" as="geometry" />
        </mxCell>
        <mxCell id="HaBFPjXSsnw16N7_fHS7-13" value="" style="endArrow=none;html=1;rounded=0;entryX=0.602;entryY=1.01;entryDx=0;entryDy=0;entryPerimeter=0;" edge="1" parent="1" target="HaBFPjXSsnw16N7_fHS7-4">
          <mxGeometry width="50" height="50" relative="1" as="geometry">
            <mxPoint x="470" y="330" as="sourcePoint" />
            <mxPoint x="530" y="320" as="targetPoint" />
          </mxGeometry>
        </mxCell>
        <mxCell id="HaBFPjXSsnw16N7_fHS7-14" value="" style="endArrow=none;html=1;rounded=0;exitX=0.667;exitY=1.023;exitDx=0;exitDy=0;exitPerimeter=0;" edge="1" parent="1" source="HaBFPjXSsnw16N7_fHS7-1">
          <mxGeometry width="50" height="50" relative="1" as="geometry">
            <mxPoint x="480" y="370" as="sourcePoint" />
            <mxPoint x="470" y="330" as="targetPoint" />
          </mxGeometry>
        </mxCell>
        <mxCell id="HaBFPjXSsnw16N7_fHS7-15" value="ARA2" style="rounded=0;whiteSpace=wrap;html=1;" vertex="1" parent="1">
          <mxGeometry x="540" y="370" width="120" height="60" as="geometry" />
        </mxCell>
        <mxCell id="HaBFPjXSsnw16N7_fHS7-16" value="" style="endArrow=none;html=1;rounded=0;entryX=0;entryY=0.25;entryDx=0;entryDy=0;exitX=0.209;exitY=0.992;exitDx=0;exitDy=0;exitPerimeter=0;" edge="1" parent="1" source="HaBFPjXSsnw16N7_fHS7-1" target="HaBFPjXSsnw16N7_fHS7-15">
          <mxGeometry width="50" height="50" relative="1" as="geometry">
            <mxPoint x="450" y="460" as="sourcePoint" />
            <mxPoint x="500" y="410" as="targetPoint" />
          </mxGeometry>
        </mxCell>
        <mxCell id="HaBFPjXSsnw16N7_fHS7-22" style="edgeStyle=none;rounded=0;orthogonalLoop=1;jettySize=auto;html=1;entryX=0.5;entryY=0;entryDx=0;entryDy=0;shape=link;" edge="1" parent="1" source="HaBFPjXSsnw16N7_fHS7-19" target="HaBFPjXSsnw16N7_fHS7-21">
          <mxGeometry relative="1" as="geometry" />
        </mxCell>
        <mxCell id="HaBFPjXSsnw16N7_fHS7-28" style="edgeStyle=none;shape=link;rounded=0;orthogonalLoop=1;jettySize=auto;html=1;entryX=0;entryY=0;entryDx=0;entryDy=0;" edge="1" parent="1" source="HaBFPjXSsnw16N7_fHS7-19" target="HaBFPjXSsnw16N7_fHS7-27">
          <mxGeometry relative="1" as="geometry" />
        </mxCell>
        <mxCell id="HaBFPjXSsnw16N7_fHS7-37" style="edgeStyle=none;shape=link;rounded=0;orthogonalLoop=1;jettySize=auto;html=1;entryX=0;entryY=0;entryDx=0;entryDy=0;" edge="1" parent="1" source="HaBFPjXSsnw16N7_fHS7-19" target="HaBFPjXSsnw16N7_fHS7-35">
          <mxGeometry relative="1" as="geometry" />
        </mxCell>
        <mxCell id="HaBFPjXSsnw16N7_fHS7-19" value="XBAR" style="rounded=0;whiteSpace=wrap;html=1;" vertex="1" parent="1">
          <mxGeometry x="150" y="320" width="120" height="60" as="geometry" />
        </mxCell>
        <mxCell id="HaBFPjXSsnw16N7_fHS7-24" style="edgeStyle=none;shape=link;rounded=0;orthogonalLoop=1;jettySize=auto;html=1;entryX=0.5;entryY=0;entryDx=0;entryDy=0;" edge="1" parent="1" source="HaBFPjXSsnw16N7_fHS7-21" target="HaBFPjXSsnw16N7_fHS7-23">
          <mxGeometry relative="1" as="geometry" />
        </mxCell>
        <mxCell id="HaBFPjXSsnw16N7_fHS7-21" value="ATOP-FILTER" style="rounded=0;whiteSpace=wrap;html=1;" vertex="1" parent="1">
          <mxGeometry x="150" y="430" width="120" height="60" as="geometry" />
        </mxCell>
        <mxCell id="HaBFPjXSsnw16N7_fHS7-26" style="edgeStyle=none;shape=link;rounded=0;orthogonalLoop=1;jettySize=auto;html=1;entryX=0.5;entryY=0;entryDx=0;entryDy=0;" edge="1" parent="1" source="HaBFPjXSsnw16N7_fHS7-23" target="HaBFPjXSsnw16N7_fHS7-25">
          <mxGeometry relative="1" as="geometry" />
        </mxCell>
        <mxCell id="HaBFPjXSsnw16N7_fHS7-23" value="AXI2MEM" style="rounded=0;whiteSpace=wrap;html=1;" vertex="1" parent="1">
          <mxGeometry x="160" y="520" width="100" height="40" as="geometry" />
        </mxCell>
        <mxCell id="HaBFPjXSsnw16N7_fHS7-25" value="L2 DDR" style="rounded=0;whiteSpace=wrap;html=1;" vertex="1" parent="1">
          <mxGeometry x="150" y="600" width="120" height="60" as="geometry" />
        </mxCell>
        <mxCell id="HaBFPjXSsnw16N7_fHS7-30" style="edgeStyle=none;shape=link;rounded=0;orthogonalLoop=1;jettySize=auto;html=1;" edge="1" parent="1" source="HaBFPjXSsnw16N7_fHS7-27" target="HaBFPjXSsnw16N7_fHS7-29">
          <mxGeometry relative="1" as="geometry" />
        </mxCell>
        <mxCell id="HaBFPjXSsnw16N7_fHS7-27" value="DWC" style="rounded=0;whiteSpace=wrap;html=1;" vertex="1" parent="1">
          <mxGeometry x="340" y="470" width="100" height="40" as="geometry" />
        </mxCell>
        <mxCell id="HaBFPjXSsnw16N7_fHS7-32" style="edgeStyle=none;shape=link;rounded=0;orthogonalLoop=1;jettySize=auto;html=1;entryX=0.5;entryY=0;entryDx=0;entryDy=0;" edge="1" parent="1" source="HaBFPjXSsnw16N7_fHS7-29" target="HaBFPjXSsnw16N7_fHS7-31">
          <mxGeometry relative="1" as="geometry" />
        </mxCell>
        <mxCell id="HaBFPjXSsnw16N7_fHS7-29" value="AXI2LITE" style="rounded=0;whiteSpace=wrap;html=1;" vertex="1" parent="1">
          <mxGeometry x="340" y="530" width="100" height="40" as="geometry" />
        </mxCell>
        <mxCell id="HaBFPjXSsnw16N7_fHS7-33" style="edgeStyle=none;shape=link;rounded=0;orthogonalLoop=1;jettySize=auto;html=1;" edge="1" parent="1" source="HaBFPjXSsnw16N7_fHS7-31">
          <mxGeometry relative="1" as="geometry">
            <mxPoint x="390" y="680" as="targetPoint" />
          </mxGeometry>
        </mxCell>
        <mxCell id="HaBFPjXSsnw16N7_fHS7-31" value="LITE2APB" style="rounded=0;whiteSpace=wrap;html=1;" vertex="1" parent="1">
          <mxGeometry x="340" y="600" width="100" height="40" as="geometry" />
        </mxCell>
        <mxCell id="HaBFPjXSsnw16N7_fHS7-34" value="UART" style="text;html=1;align=center;verticalAlign=middle;whiteSpace=wrap;rounded=0;" vertex="1" parent="1">
          <mxGeometry x="350" y="680" width="60" height="30" as="geometry" />
        </mxCell>
        <mxCell id="HaBFPjXSsnw16N7_fHS7-38" style="edgeStyle=none;shape=link;rounded=0;orthogonalLoop=1;jettySize=auto;html=1;entryX=0.5;entryY=0;entryDx=0;entryDy=0;" edge="1" parent="1" source="HaBFPjXSsnw16N7_fHS7-35" target="HaBFPjXSsnw16N7_fHS7-36">
          <mxGeometry relative="1" as="geometry" />
        </mxCell>
        <mxCell id="HaBFPjXSsnw16N7_fHS7-35" value="DWC" style="rounded=0;whiteSpace=wrap;html=1;" vertex="1" parent="1">
          <mxGeometry x="520" y="470" width="100" height="40" as="geometry" />
        </mxCell>
        <mxCell id="HaBFPjXSsnw16N7_fHS7-40" style="edgeStyle=none;shape=link;rounded=0;orthogonalLoop=1;jettySize=auto;html=1;entryX=0.5;entryY=0;entryDx=0;entryDy=0;" edge="1" parent="1" source="HaBFPjXSsnw16N7_fHS7-36" target="HaBFPjXSsnw16N7_fHS7-39">
          <mxGeometry relative="1" as="geometry" />
        </mxCell>
        <mxCell id="HaBFPjXSsnw16N7_fHS7-36" value="AXI2LITE" style="rounded=0;whiteSpace=wrap;html=1;" vertex="1" parent="1">
          <mxGeometry x="520" y="550" width="100" height="40" as="geometry" />
        </mxCell>
        <mxCell id="HaBFPjXSsnw16N7_fHS7-39" value="CTRL_REGS" style="rounded=0;whiteSpace=wrap;html=1;" vertex="1" parent="1">
          <mxGeometry x="520" y="620" width="100" height="40" as="geometry" />
        </mxCell>
      </root>
    </mxGraphModel>
  </diagram>
</mxfile>
